<svg width="32" height="32" viewBox="0 0 32 32" fill="none" xmlns="http://www.w3.org/2000/svg">
  <!-- Background with rounded corners -->
  <rect width="32" height="32" rx="6" fill="url(#bgGradient)"/>
  
  <!-- Rocket body -->
  <path d="M16 7C15 7 14 7.5 13.5 8.5C13 9.5 13 10.5 13.5 11.5C14 12.5 15 13 16 13C17 13 18 12.5 18.5 11.5C19 10.5 19 9.5 18.5 8.5C18 7.5 17 7 16 7Z" fill="white"/>
  
  <!-- Rocket window -->
  <circle cx="16" cy="10" r="1.5" fill="#2563EB"/>
  
  <!-- Rocket fins -->
  <path d="M12 13L10 17L12 15" fill="white"/>
  <path d="M20 13L22 17L20 15" fill="white"/>
  
  <!-- Rocket flame -->
  <path d="M14 17L16 22L18 17" fill="#F97316"/>
  <path d="M15 19L16 21L17 19" fill="#FB923C"/>
  
  <defs>
    <linearGradient id="bgGradient" x1="0" y1="0" x2="32" y2="32" gradientUnits="userSpaceOnUse">
      <stop offset="0%" stop-color="#2563EB"/>
      <stop offset="100%" stop-color="#1D4ED8"/>
    </linearGradient>
  </defs>
</svg>
